<svg width="1466" height="368" viewBox="0 0 1466 368" fill="none" xmlns="http://www.w3.org/2000/svg">
<g clip-path="url(#clip0_166_60)">
<path d="M1446 0H20C8.9543 0 0 8.9543 0 20V348C0 359.046 8.9543 368 20 368H1446C1457.05 368 1466 359.046 1466 348V20C1466 8.9543 1457.05 0 1446 0Z" fill="#4BCF1C"/>
<g opacity="0.13">
<mask id="mask0_166_60" style="mask-type:luminance" maskUnits="userSpaceOnUse" x="0" y="0" width="1466" height="368">
<path d="M1446 0H20C8.9543 0 0 8.9543 0 20V348C0 359.046 8.9543 368 20 368H1446C1457.05 368 1466 359.046 1466 348V20C1466 8.9543 1457.05 0 1446 0Z" fill="white"/>
</mask>
<g mask="url(#mask0_166_60)">
<path opacity="0.76" d="M441.5 263C539.531 263 619 183.531 619 85.5C619 -12.5305 539.531 -92 441.5 -92C343.469 -92 264 -12.5305 264 85.5C264 183.531 343.469 263 441.5 263Z" fill="#EEFBE8"/>
<path opacity="0.55" d="M655.5 263C753.531 263 833 183.531 833 85.5C833 -12.5305 753.531 -92 655.5 -92C557.469 -92 478 -12.5305 478 85.5C478 183.531 557.469 263 655.5 263Z" fill="#B4F2B3"/>
<path opacity="0.52" d="M554.5 475C654.74 475 736 395.531 736 297.5C736 199.469 654.74 120 554.5 120C454.26 120 373 199.469 373 297.5C373 395.531 454.26 475 554.5 475Z" fill="#15BF26"/>
</g>
</g>
</g>
<defs>
<clipPath id="clip0_166_60">
<rect width="1466" height="368" fill="white"/>
</clipPath>
</defs>
</svg>
